<svg width="24" height="24" viewBox="0 0 24 24" fill="none" xmlns="http://www.w3.org/2000/svg">
  <path fill-rule="evenodd" clip-rule="evenodd" d="M12 2C17.5232 2 22 6.47684 22 12C22 17.5226 17.5232 22 12 22C6.47739 22 2 17.5226 2 12C2 6.47684 6.47739 2 12 2ZM18.7415 9.59754C17.9403 8.96597 17.0407 8.81237 16.0649 9.08588C15.7428 9.1765 15.467 9.35939 15.2068 9.58704C14.9305 9.25054 14.5725 9.124 14.1509 9.14113C14.0337 9.14611 14 9.18479 14 9.29695C14.0022 11.7431 14.0022 14.1893 14 16.6354C13.9995 16.7553 14.0359 16.7984 14.1586 16.7962L14.7272 16.7928L15.2957 16.794C15.4221 16.794 15.4553 16.7924 15.464 16.7217L15.467 16.6255V14.4865L15.579 14.5529C15.595 14.5618 15.6103 14.5694 15.6262 14.5755L16.0113 14.7346C16.1399 14.7866 16.2696 14.8324 16.4031 14.8567C17.6386 15.08 18.8498 14.4987 19.4863 13.4041C20.1339 12.2879 20.0289 10.612 18.7415 9.59754ZM8.57096 9.14186C8.46929 9.14025 8.42177 9.1828 8.38419 9.26899L7.58023 11.1073C7.42275 11.4654 7.26417 11.8229 7.09785 12.1992L7.00723 12.003C6.63923 11.1648 6.26902 10.3282 5.90489 9.48836C5.80322 9.25408 5.63967 9.13914 5.38383 9.14301C5.04457 9.14799 4.7053 9.14357 4.36548 9.14412C4.21415 9.1446 4.17535 9.17427 4.21392 9.28607L4.23508 9.33917C4.97937 11.0305 5.72586 12.7213 6.46573 14.4149C6.5895 14.6973 6.80445 14.8078 7.09177 14.8089C7.34222 14.8103 7.54486 14.7314 7.67415 14.5229L7.725 14.4254L9.96229 9.33751C10.028 9.18777 10.0004 9.14467 9.84017 9.14467C9.41747 9.14357 8.99421 9.14743 8.57096 9.14186ZM12.1945 9.14202L11.6259 9.14504L10.9993 9.1447C10.915 9.14664 10.8902 9.15765 10.883 9.21981L10.88 9.32165V14.5455C10.88 14.6891 10.8846 14.7117 10.9968 14.7151L12.2022 14.7179C12.3155 14.719 12.3581 14.6798 12.3575 14.5643C12.3553 12.8099 12.3553 11.0556 12.3581 9.30121C12.3581 9.17909 12.3138 9.14042 12.1945 9.14202ZM16.8893 10.4236C17.7292 10.4203 18.4 11.0905 18.3994 11.9326C18.3989 12.7747 17.7303 13.4383 16.8854 13.4361C16.0516 13.4334 15.3842 12.762 15.3853 11.9288C15.3864 11.0955 16.0549 10.4264 16.8893 10.4236Z" fill="#001833"/>
</svg>